<?xml version="1.0" encoding="UTF-8"?>
<svg xmlns="http://www.w3.org/2000/svg" viewBox="4 4 24 24" width="32" height="32">
  <path d="M185 -110V830H465V715H310V5H465V-110Z" fill="#3f3f46" transform="translate(1.0000 23.2000) scale(0.02 -0.02)"/>
  <path d="M300 -10Q229 -10 177.0 17.0Q125 44 96.5 93.0Q68 142 68 208V522Q68 588 96.5 637.0Q125 686 177.0 713.0Q229 740 300 740Q371 740 423.0 713.0Q475 686 503.5 637.0Q532 588 532 522V208Q532 142 503.5 93.0Q475 44 423.0 17.0Q371 -10 300 -10ZM186 522V288L410 554Q401 590 372.0 611.0Q343 632 300 632Q247 632 216.5 602.0Q186 572 186 522ZM300 98Q352 98 383.0 128.0Q414 158 414 208V442L190 176Q199 140 228.0 119.0Q257 98 300 98Z" fill="#7c3aed" transform="translate(10.0000 23.2000) scale(0.02 -0.02)"/>
  <path d="M135 -110V5H290V715H135V830H415V-110Z" fill="#3f3f46" transform="translate(19.0000 23.2000) scale(0.02 -0.02)"/>
</svg>
